<svg width="206" height="54" viewBox="0 0 206 54" fill="none" xmlns="http://www.w3.org/2000/svg">
<path d="M4.3065 26.4072H18V28.5928H4.3065L10.341 34.4547L8.75025 36L0 27.5L8.75025 19L10.341 20.5453L4.3065 26.4072Z" fill="#6D6F92"/>
<path d="M201.693 28.5928L188 28.5928L188 26.4072L201.693 26.4072L195.659 20.5453L197.25 19L206 27.5L197.25 36L195.659 34.4547L201.693 28.5928Z" fill="#6D6F92"/>
<path d="M68.8182 39.3182C67.1818 39.3182 65.7841 38.8485 64.625 37.9091C63.4735 36.9621 62.5871 35.5947 61.9659 33.8068C61.3523 32.0189 61.0455 29.8712 61.0455 27.3636C61.0455 24.8636 61.3523 22.7235 61.9659 20.9432C62.5871 19.1553 63.4773 17.7879 64.6364 16.8409C65.803 15.8864 67.197 15.4091 68.8182 15.4091C70.4394 15.4091 71.8295 15.8864 72.9886 16.8409C74.1553 17.7879 75.0455 19.1553 75.6591 20.9432C76.2803 22.7235 76.5909 24.8636 76.5909 27.3636C76.5909 29.8712 76.2803 32.0189 75.6591 33.8068C75.0455 35.5947 74.1591 36.9621 73 37.9091C71.8485 38.8485 70.4545 39.3182 68.8182 39.3182ZM68.8182 37.4091C70.6136 37.4091 72.0152 36.5341 73.0227 34.7841C74.0303 33.0265 74.5341 30.553 74.5341 27.3636C74.5341 25.2424 74.303 23.4318 73.8409 21.9318C73.3864 20.4242 72.7311 19.2727 71.875 18.4773C71.0265 17.6818 70.0076 17.2841 68.8182 17.2841C67.0379 17.2841 65.6402 18.1705 64.625 19.9432C63.6098 21.7083 63.1023 24.1818 63.1023 27.3636C63.1023 29.4848 63.3295 31.2955 63.7841 32.7955C64.2462 34.2955 64.9015 35.4394 65.75 36.2273C66.6061 37.0152 67.6288 37.4091 68.8182 37.4091ZM88.3977 15.7273V39H86.2727V17.9545H86.1364L80.6818 21.5795V19.375L86.1818 15.7273H88.3977ZM104.966 26.4091V28.3182H95.2841V26.4091H104.966Z" fill="white"/>
<path d="M117.193 39.3182C115.557 39.3182 114.159 38.8485 113 37.9091C111.848 36.9621 110.962 35.5947 110.341 33.8068C109.727 32.0189 109.42 29.8712 109.42 27.3636C109.42 24.8636 109.727 22.7235 110.341 20.9432C110.962 19.1553 111.852 17.7879 113.011 16.8409C114.178 15.8864 115.572 15.4091 117.193 15.4091C118.814 15.4091 120.205 15.8864 121.364 16.8409C122.53 17.7879 123.42 19.1553 124.034 20.9432C124.655 22.7235 124.966 24.8636 124.966 27.3636C124.966 29.8712 124.655 32.0189 124.034 33.8068C123.42 35.5947 122.534 36.9621 121.375 37.9091C120.223 38.8485 118.83 39.3182 117.193 39.3182ZM117.193 37.4091C118.989 37.4091 120.39 36.5341 121.398 34.7841C122.405 33.0265 122.909 30.553 122.909 27.3636C122.909 25.2424 122.678 23.4318 122.216 21.9318C121.761 20.4242 121.106 19.2727 120.25 18.4773C119.402 17.6818 118.383 17.2841 117.193 17.2841C115.413 17.2841 114.015 18.1705 113 19.9432C111.985 21.7083 111.477 24.1818 111.477 27.3636C111.477 29.4848 111.705 31.2955 112.159 32.7955C112.621 34.2955 113.277 35.4394 114.125 36.2273C114.981 37.0152 116.004 37.4091 117.193 37.4091ZM137.148 39.3182C135.716 39.3182 134.436 39.0606 133.307 38.5455C132.178 38.0227 131.284 37.2992 130.625 36.375C129.966 35.4508 129.617 34.3864 129.58 33.1818H131.727C131.765 34.0303 132.027 34.7727 132.511 35.4091C132.996 36.0379 133.64 36.5303 134.443 36.8864C135.246 37.2348 136.14 37.4091 137.125 37.4091C138.201 37.4091 139.148 37.2083 139.966 36.8068C140.792 36.4053 141.436 35.8561 141.898 35.1591C142.367 34.4545 142.602 33.6591 142.602 32.7727C142.602 31.8333 142.364 31.0038 141.886 30.2841C141.409 29.5644 140.723 29.0038 139.83 28.6023C138.943 28.2008 137.883 28 136.648 28H135.284V26.0909H136.648C137.655 26.0909 138.545 25.9091 139.318 25.5455C140.098 25.1742 140.712 24.6553 141.159 23.9886C141.606 23.322 141.83 22.5379 141.83 21.6364C141.83 20.7803 141.636 20.0265 141.25 19.375C140.864 18.7235 140.318 18.2121 139.614 17.8409C138.917 17.4697 138.102 17.2841 137.17 17.2841C136.269 17.2841 135.443 17.4583 134.693 17.8068C133.943 18.1553 133.337 18.6477 132.875 19.2841C132.42 19.9205 132.178 20.6742 132.148 21.5455H130.091C130.121 20.3333 130.455 19.2689 131.091 18.3523C131.735 17.428 132.587 16.7083 133.648 16.1932C134.716 15.6705 135.898 15.4091 137.193 15.4091C138.564 15.4091 139.75 15.6894 140.75 16.25C141.75 16.8106 142.523 17.5568 143.068 18.4886C143.621 19.4129 143.898 20.4318 143.898 21.5455C143.898 22.8712 143.538 24.0076 142.818 24.9545C142.098 25.8939 141.129 26.5455 139.909 26.9091V27.0568C141.394 27.3523 142.561 28.0114 143.409 29.0341C144.265 30.0492 144.693 31.2955 144.693 32.7727C144.693 34.0152 144.367 35.1326 143.716 36.125C143.064 37.1098 142.17 37.8902 141.034 38.4659C139.905 39.0341 138.61 39.3182 137.148 39.3182Z" fill="#767799"/>
</svg>
