<svg width="166" height="44" viewBox="0 0 166 44" fill="none" xmlns="http://www.w3.org/2000/svg">
<path d="M27.3162 10.7748H29.9193V28.8314H37.7285V31.4257H27.3162V10.7748ZM45.8371 10.7748C47.3816 10.7748 48.8914 11.2313 50.1756 12.0865C51.4598 12.9417 52.4608 14.1572 53.0518 15.5794C53.6429 17.0016 53.7975 18.5665 53.4962 20.0762C53.1949 21.5859 52.4512 22.9727 51.3589 24.0612C50.2668 25.1498 48.8754 25.891 47.3605 26.1913C45.8458 26.4916 44.2756 26.3375 42.8486 25.7484C41.4216 25.1592 40.2021 24.1617 39.344 22.8818C38.4859 21.6019 38.0278 20.0972 38.0278 18.5578C38.0278 17.5358 38.2298 16.5236 38.6223 15.5794C39.0147 14.6351 39.5899 13.7771 40.3152 13.0545C41.0402 12.3317 41.9011 11.7583 42.8486 11.3672C43.796 10.9762 44.8116 10.7748 45.8371 10.7748ZM45.8371 23.7465C46.8667 23.7465 47.8733 23.4422 48.7295 22.8721C49.5856 22.3018 50.2529 21.4915 50.6469 20.5434C51.041 19.5953 51.1441 18.5521 50.9431 17.5455C50.7423 16.5391 50.2464 15.6146 49.5183 14.8889C48.7902 14.1633 47.8626 13.6691 46.8528 13.4689C45.8428 13.2686 44.7961 13.3714 43.8448 13.7642C42.8935 14.1568 42.0803 14.8219 41.5083 15.6751C40.9363 16.5284 40.6309 17.5316 40.6309 18.5578C40.6378 19.9295 41.1893 21.2426 42.1649 22.21C43.1405 23.1774 44.4608 23.7206 45.8371 23.7206V23.7465ZM40.6309 28.8573H51.0432V31.4517H40.6309V28.8573ZM73.9502 31.4517H71.3471V29.5967C69.6684 30.7678 67.6695 31.3972 65.6204 31.3998C63.8731 31.4115 62.1509 30.9847 60.6126 30.1588C59.0742 29.3327 57.7691 28.1343 56.8177 26.6737C55.8662 25.2131 55.2987 23.5373 55.1678 21.8006C55.0367 20.0641 55.3463 18.3225 56.068 16.7366C56.7897 15.1506 57.9003 13.771 59.2974 12.7253C60.6946 11.6793 62.3333 11.0007 64.0627 10.7519C65.7922 10.5029 67.5567 10.6919 69.1935 11.3012C70.8304 11.9105 72.2872 12.9205 73.4296 14.2383L71.5163 15.9376C70.6474 14.9693 69.5493 14.2333 68.3218 13.7966C67.0945 13.3597 65.7769 13.2359 64.4893 13.4366C63.2016 13.6373 61.9849 14.156 60.9498 14.9454C59.9148 15.7348 59.0945 16.7697 58.5637 17.9561C58.0328 19.1423 57.8083 20.4421 57.9106 21.7371C58.0129 23.032 58.4386 24.2808 59.1493 25.3696C59.8599 26.4585 60.8325 27.3529 61.9788 27.9711C63.1249 28.5893 64.4082 28.9118 65.7115 28.9092C66.793 28.9114 67.8624 28.6808 68.8463 28.233C69.8302 27.7852 70.7055 27.1309 71.4122 26.3149H64.3839V23.7206H73.9762L73.9502 31.4517ZM83.5295 10.8267C85.074 10.8267 86.5838 11.2832 87.868 12.1384C89.1522 12.9936 90.1532 14.2091 90.7443 15.6313C91.3353 17.0535 91.4899 18.6184 91.1886 20.1281C90.8873 21.6378 90.1436 23.0246 89.0514 24.1131C87.9592 25.2017 86.5678 25.9429 85.0529 26.2432C83.5382 26.5434 81.968 26.3893 80.541 25.8003C79.114 25.2111 77.8945 24.2136 77.0364 22.9337C76.1783 21.6538 75.7203 20.1491 75.7203 18.6097C75.7134 17.5811 75.9112 16.5614 76.3022 15.6094C76.6932 14.6574 77.2696 13.792 77.9982 13.0636C78.7268 12.3349 79.5931 11.7576 80.547 11.3647C81.5009 10.9719 82.5234 10.7713 83.5555 10.7748L83.5295 10.8267ZM83.5295 23.7984C84.5591 23.7984 85.5657 23.4941 86.4219 22.924C87.278 22.3537 87.9453 21.5434 88.3393 20.5953C88.7334 19.6472 88.8365 18.604 88.6355 17.5974C88.4347 16.5909 87.9388 15.6664 87.2107 14.9408C86.4827 14.2152 85.5551 13.721 84.5452 13.5208C83.5352 13.3205 82.4885 13.4233 81.5372 13.816C80.5859 14.2087 79.7727 14.8737 79.2007 15.727C78.6287 16.5803 78.3233 17.5835 78.3233 18.6097C78.3439 19.9768 78.905 21.2806 79.8848 22.2376C80.8645 23.1946 82.1837 23.7276 83.5555 23.7206L83.5295 23.7984ZM78.3233 28.9092H88.7356V31.5036H78.3233V28.9092ZM94.1109 10.7748H96.714V31.3998H94.1109V10.7748ZM100.319 10.7748H102.922C103.056 10.7607 103.192 10.7607 103.326 10.7748C104.416 10.6569 105.519 10.7693 106.563 11.1043C107.606 11.4395 108.568 11.9899 109.384 12.7198C110.2 13.4497 110.853 14.3428 111.299 15.3409C111.746 16.3389 111.977 17.4196 111.977 18.5124C111.977 19.6053 111.746 20.686 111.299 21.684C110.853 22.682 110.2 23.5751 109.384 24.3051C108.568 25.035 107.606 25.5854 106.563 25.9205C105.519 26.2556 104.416 26.3679 103.326 26.25H102.922V31.4387H100.319V10.7748ZM102.922 13.3692V23.6298H103.326C104.061 23.7273 104.809 23.6672 105.519 23.4533C106.229 23.2396 106.885 22.877 107.443 22.39C108.001 21.9031 108.448 21.3029 108.754 20.6297C109.061 19.9564 109.219 19.2257 109.219 18.4865C109.219 17.7472 109.061 17.0165 108.754 16.3433C108.448 15.6701 108.001 15.0699 107.443 14.5829C106.885 14.0958 106.229 13.7334 105.519 13.5195C104.809 13.3057 104.061 13.2457 103.326 13.3432C103.184 13.3579 103.044 13.3884 102.909 13.434L102.922 13.3692ZM121.677 12.2666L119.751 13.7843C119.419 13.4382 118.994 13.1938 118.527 13.0799C118.061 12.966 117.571 12.9873 117.116 13.1413C116.66 13.2951 116.259 13.5753 115.958 13.9489C115.657 14.3225 115.469 14.7739 115.417 15.2501V15.4576C115.417 16.5991 116.211 17.3644 117.76 17.4682C123.721 17.8314 126.454 20.6203 126.454 24.3043V24.5378C126.3 25.9958 125.729 27.3791 124.809 28.5232C123.889 29.6673 122.659 30.5238 121.265 30.9912C119.871 31.4584 118.371 31.5168 116.944 31.1592C115.518 30.8017 114.224 30.0432 113.217 28.9741L115.209 27.4434C115.672 27.9385 116.238 28.3272 116.868 28.5826C117.497 28.8379 118.174 28.9538 118.853 28.9222C120.107 28.9881 121.337 28.5687 122.288 27.7516C123.239 26.9347 123.836 25.7832 123.955 24.5378V24.3562C123.955 20.8927 120.545 20.2571 117.591 19.9717C114.857 19.7123 112.892 18.013 112.892 15.5614V15.4576C112.988 14.1812 113.573 12.9904 114.525 12.1312C115.477 11.2718 116.723 10.8095 118.007 10.8397C118.688 10.8197 119.364 10.942 119.995 11.199C120.624 11.456 121.193 11.8418 121.664 12.3314L121.677 12.2666ZM136.645 28.7665C139.886 28.7665 142.45 25.2772 142.45 20.9835V10.6062H145.053V20.9835C145.053 26.6911 141.305 31.296 136.697 31.296C132.09 31.296 128.341 26.6911 128.341 20.9835V10.6062H130.944V20.9835C130.84 25.342 133.404 28.8314 136.632 28.8314L136.645 28.7665ZM165.032 31.3609H162.428V18.5189L156.428 26.3019L150.428 18.5189V31.3998H147.825V10.7748L156.415 22.0472L165.006 10.7748L165.032 31.3609Z" fill="#A1A1AA"/>
<path d="M14.8211 7.67475C14.8211 5.80322 14.0752 4.00835 12.7474 2.68499C11.4195 1.36162 9.61857 0.618164 7.74075 0.618164C5.86292 0.618164 4.06201 1.36162 2.73419 2.68499C1.40636 4.00835 0.6604 5.80322 0.6604 7.67475V29.0131L6.49127 33.177V43.3209H8.99022V33.177L14.8211 29.0131V7.67475ZM12.3221 19.6087L8.99022 22.9294V19.8162L12.3221 16.4955V19.6087ZM3.21141 16.4955L6.54333 19.8162V22.9294L3.21141 19.6087V16.4955ZM12.3221 12.9672L7.74075 17.5332L3.15935 12.8634V9.75022L7.74075 14.3162L12.3221 9.75022V12.9672ZM7.74075 3.10872C8.74833 3.11316 9.72667 3.44667 10.5259 4.05816C11.3252 4.66964 11.9012 5.52538 12.166 6.49433L7.74075 10.8917L3.31553 6.49433C3.57055 5.51575 4.14249 4.6484 4.94262 4.02687C5.74275 3.40533 6.72632 3.06435 7.74075 3.05682V3.10872ZM3.15935 27.7549V23.0851L6.49127 26.4058V30.1157L3.15935 27.7549ZM8.99022 30.1287V26.4058L12.3221 23.0851V27.7419L8.99022 30.1287Z" fill="#A1A1AA"/>
</svg>
