<svg width="198" height="35" viewBox="0 0 198 35" fill="none" xmlns="http://www.w3.org/2000/svg">
<path d="M-0.00012207 29.3503C5.40314 29.3503 9.7833 24.9701 9.7833 19.5669C9.7833 14.1636 5.40314 9.78345 -0.00012207 9.78345V16.6318C1.62084 16.6318 2.93489 17.9459 2.93489 19.5669C2.93489 21.1879 1.62084 22.5019 -0.00012207 22.5019V29.3503Z" fill="#E11D48"/>
<path d="M32.611 13.0448C30.9392 12.5152 29.1588 12.2295 27.3116 12.2295C17.6308 12.2295 9.78302 20.0774 9.78302 29.7581C9.78302 30.7298 9.86209 31.6831 10.0141 32.6117H20.9052C20.5164 31.74 20.3003 30.7744 20.3003 29.7581C20.3003 25.8858 23.4393 22.7467 27.3116 22.7467C29.4281 22.7467 31.3254 23.6844 32.611 25.167V13.0448Z" fill="#FDA4AF"/>
<path d="M1.71957 0C2.53069 7.33749 8.75147 13.0446 16.3052 13.0446C23.8588 13.0446 30.0796 7.33749 30.8907 0H20.3958C19.7479 1.62423 18.1605 2.77196 16.3052 2.77196C14.4497 2.77196 12.8625 1.62423 12.2144 0H1.71957Z" fill="#FB7185"/>
<path d="M59.1679 8.14502H63.016C65.2325 8.14502 66.4023 8.20659 67.5414 8.36052V4.23535C66.3715 4.38928 65.2325 4.45084 63.016 4.45084H50.8252C49.0705 4.45084 47.7467 4.38928 46.6385 4.23535V8.36052C47.716 8.20659 49.0397 8.14502 50.856 8.14502H55.012V24.9535C55.012 26.6159 54.9504 27.6626 54.7657 28.9555H59.4142C59.2295 27.6934 59.1679 26.6159 59.1679 24.9535V8.14502Z" fill="#E4E4E7"/>
<path d="M69.9113 4.45084V8.36052H74.4367V4.45084H69.9113ZM69.9113 11.2851C70.096 12.5472 70.1576 13.5939 70.1576 15.2871V24.9535C70.1576 26.4928 70.096 27.5702 69.9113 28.9555H74.4059C74.252 27.6626 74.1904 26.6159 74.1904 24.9227V15.3179C74.1904 13.44 74.252 12.4241 74.4059 11.2851H69.9113Z" fill="#E4E4E7"/>
<path d="M82.7019 28.9555C82.5172 27.6318 82.4556 26.462 82.4556 24.9535V18.735C83.8102 15.6873 85.6265 14.1481 87.843 14.1481C89.0128 14.1481 89.9363 14.6098 90.4289 15.4102C90.7983 15.9951 90.9522 16.8263 90.9522 18.1193V24.9535C90.9522 26.5235 90.8907 27.5702 90.7368 28.9555H95.2005C95.0158 27.8165 94.9543 26.6467 94.9543 24.9535V17.5652C94.9543 15.5026 94.6464 14.2712 93.9076 13.2553C92.7993 11.7468 91.0446 10.9772 88.6742 10.9772C85.9035 10.9772 84.2719 11.8392 82.3941 14.2404C82.4556 13.4708 82.4556 13.3784 82.4556 12.9167V11.2851H78.2689C78.4536 12.5472 78.5152 13.5939 78.5152 15.2871V24.9535C78.5152 26.6775 78.4536 27.6318 78.2689 28.9555H82.7019Z" fill="#E4E4E7"/>
<path d="M104.862 27.7242L103.816 30.0946C103.385 31.0489 102.492 31.6338 101.415 31.6338C100.706 31.6338 100.122 31.4799 99.2596 31.1105L98.5515 34.6199C99.9676 34.897 100.86 34.9894 101.784 34.9894C104.647 34.9894 106.463 33.9119 107.448 31.5723L114.467 15.1024C115.391 12.9474 115.945 11.6853 116.13 11.2851H111.543C111.358 12.2702 111.112 13.0398 110.373 14.9177L106.956 23.6298L103.2 14.8869C102.646 13.6247 102.184 12.1778 102.03 11.2851H97.3509C97.7203 11.9623 97.7511 12.0547 99.1056 15.1024L104.862 27.7242Z" fill="#E4E4E7"/>
<path d="M117.944 31.7877C120.037 34.1582 122.069 34.9894 125.671 34.9894C128.842 34.9894 131.397 34.2813 132.936 33.0191C134.721 31.5107 135.522 29.1403 135.522 25.4461V15.1332C135.522 13.4708 135.583 12.6088 135.737 11.2851H131.612V12.7012C131.612 13.0398 131.612 13.1014 131.674 13.7171C130.35 11.8392 128.534 11.008 125.794 11.008C120.807 11.008 117.574 14.4559 117.574 19.7817C117.574 25.0459 120.714 28.4014 125.609 28.4014C128.287 28.4014 130.104 27.5394 131.643 25.6C131.581 27.6934 131.366 28.7708 130.843 29.6944C129.981 31.172 128.164 32.0032 125.794 32.0032C123.577 32.0032 122.223 31.326 121.022 29.6636L117.944 31.7877ZM121.607 19.874C121.607 16.2106 123.516 13.9018 126.594 13.9018C127.703 13.9018 128.718 14.302 129.58 15.01C130.812 16.0567 131.428 17.596 131.428 19.5662C131.428 20.9823 131.15 22.1213 130.566 23.0756C129.704 24.5225 127.98 25.5076 126.286 25.5076C125.117 25.5076 123.793 24.9535 123.023 24.1223C122.1 23.1988 121.607 21.6903 121.607 19.874Z" fill="#E4E4E7"/>
<path d="M148.094 29.5405C153.574 29.5405 157.175 25.7847 157.175 20.0895C157.175 14.3943 153.635 10.7617 148.063 10.7617C142.46 10.7617 138.889 14.4251 138.889 20.1511C138.889 25.9078 142.46 29.5405 148.094 29.5405ZM148.063 13.9633C151.326 13.9633 153.204 16.2414 153.204 20.2127C153.204 23.9684 151.234 26.2773 148.032 26.2773C144.831 26.2773 142.86 23.9376 142.86 20.1511C142.86 16.303 144.831 13.9633 148.063 13.9633Z" fill="#E4E4E7"/>
<path d="M164.684 28.9555C164.5 27.6318 164.438 26.462 164.438 24.9535V18.735C165.793 15.6873 167.609 14.1481 169.826 14.1481C170.995 14.1481 171.919 14.6098 172.411 15.4102C172.781 15.9951 172.935 16.8263 172.935 18.1193V24.9535C172.935 26.5235 172.873 27.5702 172.719 28.9555H177.183C176.998 27.8165 176.937 26.6467 176.937 24.9535V17.5652C176.937 15.5026 176.629 14.2712 175.89 13.2553C174.782 11.7468 173.027 10.9772 170.657 10.9772C167.886 10.9772 166.255 11.8392 164.377 14.2404C164.438 13.4708 164.438 13.3784 164.438 12.9167V11.2851H160.251C160.436 12.5472 160.498 13.5939 160.498 15.2871V24.9535C160.498 26.6775 160.436 27.6318 160.251 28.9555H164.684Z" fill="#E4E4E7"/>
<path d="M197.527 21.1362C197.466 20.4282 197.466 20.3358 197.466 20.2742C197.373 18.1809 197.158 17.0726 196.573 15.5949C195.342 12.5165 192.509 10.7309 188.908 10.7309C183.643 10.7309 180.226 14.4559 180.226 20.1511C180.226 25.9078 183.674 29.5405 189.123 29.5405C191.709 29.5405 193.864 28.7401 195.465 27.17C196.234 26.4004 196.635 25.8155 197.343 24.3378L193.71 23.168C193.402 23.9992 193.187 24.3378 192.817 24.7688C191.924 25.7539 190.632 26.3081 189.123 26.3081C187.553 26.3081 186.168 25.6924 185.275 24.5841C184.567 23.6913 184.29 22.8294 184.136 21.1362H197.527ZM184.228 18.0885C184.69 15.5026 186.445 13.9018 188.846 13.9018C190.293 13.9018 191.34 14.302 192.171 15.1332C192.94 15.9028 193.31 16.734 193.525 18.0885H184.228Z" fill="#E4E4E7"/>
</svg>
