<svg width="222" height="47" viewBox="0 0 222 47" fill="none" xmlns="http://www.w3.org/2000/svg">
<path d="M0.688629 23.0607C0.688629 12.1898 0.688629 6.75433 4.06579 3.37716C7.44296 0 12.8784 0 23.7494 0C34.6203 0 40.0557 0 43.433 3.37716C46.8101 6.75433 46.8101 12.1898 46.8101 23.0607C46.8101 33.9317 46.8101 39.3671 43.433 42.7443C40.0557 46.1215 34.6203 46.1215 23.7494 46.1215C12.8784 46.1215 7.44296 46.1215 4.06579 42.7443C0.688629 39.3671 0.688629 33.9317 0.688629 23.0607Z" fill="#232B36"/>
<path d="M28.3617 29.9785C28.9985 29.9785 29.5264 30.4998 29.3999 31.1239C29.1763 32.2262 28.6332 33.248 27.8261 34.0551C26.745 35.1363 25.2786 35.7437 23.7495 35.7437C22.2205 35.7437 20.7542 35.1363 19.673 34.0551C18.8658 33.248 18.3228 32.2262 18.0993 31.1239C17.9727 30.4998 18.5006 29.9785 19.1374 29.9785H28.3617Z" fill="#2DF8BB"/>
<path d="M30.7861 20.497C30.1709 20.6618 29.7942 21.3053 30.1061 21.8604C30.4344 22.4448 30.8885 22.9548 31.4409 23.3506C32.3082 23.9721 33.3642 24.2738 34.429 24.2039C35.4937 24.1341 36.5013 23.6974 37.2801 22.9679C38.059 22.2385 38.5607 21.2616 38.7 20.2036C38.8392 19.1457 38.6075 18.0723 38.044 17.1661C37.4805 16.26 36.6202 15.5773 35.6098 15.2343C34.5994 14.8913 33.5014 14.9092 32.5027 15.2851C31.8667 15.5245 31.2962 15.8996 30.8278 16.379C30.3829 16.8346 30.5802 17.5537 31.1317 17.8721L31.7166 18.2098C32.6062 18.7235 32.4308 20.0563 31.4385 20.3222L30.7861 20.497Z" fill="#2DF8BB"/>
<path d="M16.7135 20.497C17.3286 20.6618 17.7053 21.3053 17.3934 21.8604C17.0651 22.4448 16.6111 22.9548 16.0588 23.3506C15.1914 23.9721 14.1354 24.2738 13.0707 24.2039C12.0059 24.1341 10.9982 23.6974 10.2194 22.9679C9.44064 22.2385 8.93885 21.2616 8.79957 20.2036C8.6603 19.1457 8.89214 18.0723 9.45562 17.1661C10.0191 16.26 10.8793 15.5773 11.8897 15.2343C12.9001 14.8913 13.9983 14.9092 14.9969 15.2851C15.6328 15.5245 16.2035 15.8996 16.6718 16.379C17.1168 16.8346 16.9194 17.5537 16.3679 17.8721L15.783 18.2098C14.8934 18.7235 15.0689 20.0563 16.0611 20.3222L16.7135 20.497Z" fill="#2DF8BB"/>
<path d="M71.9284 34.2971L70.6707 29.4947H65.2108L63.9816 34.2971H59.6365L65.0392 14.3442H71.0994L76.5022 34.2971H71.9284ZM68.0693 18.4891H67.8407L65.8968 26.0358H70.0132L68.0693 18.4891Z" fill="#E4E4E7"/>
<path d="M79.6772 31.0097H84.1938V16.4309H79.6772V13.1436H88.4245V31.0097H92.9411V34.2971H79.6772V31.0097Z" fill="#E4E4E7"/>
<path d="M105.692 34.2971C104.168 34.2971 103.034 33.8969 102.291 33.0965C101.547 32.2961 101.176 31.2765 101.176 30.0378V22.8342H97.1738V19.5468H99.7751C100.404 19.5468 100.852 19.4229 101.119 19.1752C101.385 18.9274 101.519 18.4701 101.519 17.8031V14.3442H105.407V19.5468H111.152V22.8342H105.407V31.0097H111.152V34.2971H105.692Z" fill="#E4E4E7"/>
<path d="M123.189 34.6401C120.712 34.6401 118.834 33.9541 117.558 32.582C116.281 31.2098 115.642 29.3422 115.642 26.9791C115.642 25.7785 115.804 24.7018 116.128 23.7489C116.471 22.777 116.948 21.9575 117.558 21.2905C118.186 20.6045 118.939 20.0899 119.816 19.7469C120.712 19.3848 121.712 19.2038 122.817 19.2038C123.923 19.2038 124.914 19.3848 125.79 19.7469C126.667 20.0899 127.41 20.5854 128.02 21.2334C128.63 21.8813 129.097 22.6722 129.421 23.606C129.764 24.5207 129.935 25.5498 129.935 26.6933V27.951H119.844V28.2083C119.844 29.1612 120.14 29.933 120.731 30.5238C121.321 31.0955 122.189 31.3813 123.332 31.3813C124.209 31.3813 124.961 31.2194 125.59 30.8954C126.219 30.5524 126.762 30.1045 127.22 29.5519L129.506 32.0388C128.935 32.7439 128.134 33.3538 127.105 33.8683C126.076 34.3829 124.771 34.6401 123.189 34.6401ZM122.846 22.2339C121.931 22.2339 121.198 22.5197 120.645 23.0914C120.111 23.6441 119.844 24.3969 119.844 25.3497V25.5784H125.79V25.3497C125.79 24.3778 125.524 23.6155 124.99 23.0629C124.475 22.5102 123.761 22.2339 122.846 22.2339Z" fill="#E4E4E7"/>
<path d="M134.568 31.0097H137.97V22.8342H134.568V19.5468H142.201V23.7203H142.401C142.534 23.1867 142.715 22.6722 142.944 22.1767C143.192 21.6621 143.497 21.2143 143.859 20.8332C144.24 20.433 144.697 20.1185 145.231 19.8898C145.764 19.6611 146.393 19.5468 147.117 19.5468H148.518V23.4345H145.374C144.326 23.4345 143.535 23.7489 143.001 24.3778C142.467 24.9876 142.201 25.7404 142.201 26.6361V31.0097H147.06V34.2971H134.568V31.0097Z" fill="#E4E4E7"/>
<path d="M152.379 13.1436H156.61V22.2339H156.81C157.172 21.3572 157.696 20.6331 158.382 20.0613C159.068 19.4896 160.002 19.2038 161.184 19.2038C162.003 19.2038 162.746 19.3562 163.413 19.6611C164.099 19.9661 164.681 20.433 165.157 21.0618C165.653 21.6907 166.034 22.4911 166.301 23.4631C166.586 24.435 166.729 25.5879 166.729 26.9219C166.729 28.256 166.586 29.4089 166.301 30.3808C166.034 31.3528 165.653 32.1532 165.157 32.7821C164.681 33.4109 164.099 33.8778 163.413 34.1828C162.746 34.4877 162.003 34.6401 161.184 34.6401C160.002 34.6401 159.068 34.3638 158.382 33.8111C157.696 33.2394 157.172 32.5057 156.81 31.61H156.61V34.2971H152.379V13.1436ZM159.354 31.3528C160.307 31.3528 161.041 31.0669 161.555 30.4952C162.07 29.9044 162.327 29.0945 162.327 28.0654V25.7785C162.327 24.7494 162.07 23.949 161.555 23.3773C161.041 22.7865 160.307 22.4911 159.354 22.4911C158.611 22.4911 157.963 22.6722 157.41 23.0343C156.877 23.3964 156.61 23.9681 156.61 24.7494V29.0945C156.61 29.8758 156.877 30.4475 157.41 30.8096C157.963 31.1717 158.611 31.3528 159.354 31.3528Z" fill="#E4E4E7"/>
<path d="M177.508 34.6401C176.365 34.6401 175.336 34.4686 174.421 34.1256C173.506 33.7635 172.725 33.249 172.077 32.582C171.448 31.915 170.962 31.105 170.619 30.1522C170.276 29.1993 170.105 28.1226 170.105 26.9219C170.105 25.7213 170.276 24.6446 170.619 23.6917C170.962 22.7389 171.448 21.9289 172.077 21.2619C172.725 20.5949 173.506 20.0899 174.421 19.7469C175.336 19.3848 176.365 19.2038 177.508 19.2038C178.652 19.2038 179.681 19.3848 180.596 19.7469C181.51 20.0899 182.282 20.5949 182.911 21.2619C183.559 21.9289 184.054 22.7389 184.397 23.6917C184.741 24.6446 184.912 25.7213 184.912 26.9219C184.912 28.1226 184.741 29.1993 184.397 30.1522C184.054 31.105 183.559 31.915 182.911 32.582C182.282 33.249 181.51 33.7635 180.596 34.1256C179.681 34.4686 178.652 34.6401 177.508 34.6401ZM177.508 31.4957C178.461 31.4957 179.204 31.2003 179.738 30.6095C180.272 30.0188 180.538 29.1802 180.538 28.094V25.7499C180.538 24.6637 180.272 23.8251 179.738 23.2344C179.204 22.6436 178.461 22.3482 177.508 22.3482C176.555 22.3482 175.812 22.6436 175.279 23.2344C174.745 23.8251 174.478 24.6637 174.478 25.7499V28.094C174.478 29.1802 174.745 30.0188 175.279 30.6095C175.812 31.2003 176.555 31.4957 177.508 31.4957Z" fill="#E4E4E7"/>
<path d="M189.03 34.2971V19.5468H193.261V22.2339H193.433C193.604 21.8146 193.814 21.4239 194.062 21.0618C194.309 20.6998 194.605 20.3853 194.948 20.1185C195.31 19.8327 195.72 19.6135 196.177 19.461C196.653 19.2895 197.187 19.2038 197.778 19.2038C198.483 19.2038 199.131 19.3276 199.722 19.5754C200.312 19.8041 200.817 20.1566 201.237 20.6331C201.656 21.1095 201.98 21.6907 202.208 22.3768C202.456 23.0629 202.58 23.8537 202.58 24.7494V34.2971H198.349V25.3211C198.349 23.4154 197.52 22.4626 195.862 22.4626C195.538 22.4626 195.214 22.5102 194.891 22.6055C194.586 22.6817 194.309 22.8151 194.062 23.0057C193.814 23.1772 193.614 23.3964 193.461 23.6632C193.328 23.93 193.261 24.2444 193.261 24.6065V34.2971H189.03Z" fill="#E4E4E7"/>
<path d="M214.388 34.6401C211.911 34.6401 210.034 33.9541 208.757 32.582C207.48 31.2098 206.841 29.3422 206.841 26.9791C206.841 25.7785 207.003 24.7018 207.327 23.7489C207.67 22.777 208.147 21.9575 208.757 21.2905C209.386 20.6045 210.138 20.0899 211.015 19.7469C211.911 19.3848 212.911 19.2038 214.017 19.2038C215.122 19.2038 216.113 19.3848 216.989 19.7469C217.866 20.0899 218.609 20.5854 219.219 21.2334C219.829 21.8813 220.296 22.6722 220.62 23.606C220.963 24.5207 221.134 25.5498 221.134 26.6933V27.951H211.044V28.2083C211.044 29.1612 211.339 29.933 211.93 30.5238C212.52 31.0955 213.388 31.3813 214.531 31.3813C215.408 31.3813 216.16 31.2194 216.789 30.8954C217.418 30.5524 217.961 30.1045 218.419 29.5519L220.706 32.0388C220.134 32.7439 219.333 33.3538 218.304 33.8683C217.275 34.3829 215.97 34.6401 214.388 34.6401ZM214.045 22.2339C213.13 22.2339 212.397 22.5197 211.844 23.0914C211.31 23.6441 211.044 24.3969 211.044 25.3497V25.5784H216.989V25.3497C216.989 24.3778 216.723 23.6155 216.189 23.0629C215.674 22.5102 214.96 22.2339 214.045 22.2339Z" fill="#E4E4E7"/>
</svg>
