<svg width="137" height="45" viewBox="0 0 137 45" fill="none" xmlns="http://www.w3.org/2000/svg">
<path d="M54.9677 15.9165H51.913C51.8259 15.4156 51.6652 14.9718 51.4311 14.5852C51.197 14.1932 50.9057 13.861 50.5572 13.5888C50.2087 13.3165 49.8112 13.1123 49.3647 12.9762C48.9237 12.8346 48.4472 12.7638 47.9354 12.7638C47.026 12.7638 46.2202 12.9925 45.5178 13.4499C44.8153 13.9019 44.2654 14.5662 43.8679 15.4428C43.4704 16.314 43.2717 17.3786 43.2717 18.6364C43.2717 19.916 43.4704 20.9941 43.8679 21.8707C44.2708 22.742 44.8208 23.4008 45.5178 23.8473C46.2202 24.2884 47.0233 24.5089 47.9272 24.5089C48.4281 24.5089 48.8964 24.4435 49.332 24.3129C49.7731 24.1767 50.1679 23.978 50.5163 23.7166C50.8703 23.4553 51.167 23.134 51.4066 22.7528C51.6516 22.3717 51.8204 21.9361 51.913 21.446L54.9677 21.4624C54.8533 22.2573 54.6056 23.0033 54.2244 23.7003C53.8487 24.3973 53.3559 25.0125 52.7461 25.5462C52.1362 26.0743 51.4229 26.4882 50.6062 26.7876C49.7894 27.0817 48.8828 27.2287 47.8864 27.2287C46.4162 27.2287 45.1039 26.8884 43.9496 26.2077C42.7952 25.5271 41.8859 24.5443 41.2216 23.2592C40.5573 21.9742 40.2251 20.4332 40.2251 18.6364C40.2251 16.834 40.56 15.2931 41.2298 14.0135C41.8995 12.7285 42.8116 11.7456 43.9659 11.065C45.1203 10.3844 46.4271 10.044 47.8864 10.044C48.8175 10.044 49.6832 10.1747 50.4837 10.4361C51.2841 10.6974 51.9974 11.0813 52.6236 11.5877C53.2498 12.0887 53.7643 12.704 54.1673 13.4336C54.5756 14.1578 54.8424 14.9854 54.9677 15.9165ZM57.6119 27V14.4545H60.4788V16.5455H60.6095C60.8382 15.8213 61.2302 15.2631 61.7856 14.8711C62.3464 14.4736 62.9862 14.2749 63.705 14.2749C63.8683 14.2749 64.0508 14.283 64.2522 14.2994C64.4591 14.3103 64.6307 14.3293 64.7668 14.3565V17.0763C64.6415 17.0328 64.4428 16.9947 64.1705 16.962C63.9037 16.9239 63.6451 16.9048 63.3946 16.9048C62.8556 16.9048 62.3709 17.0219 61.9408 17.256C61.5161 17.4847 61.1812 17.8033 60.9362 18.2116C60.6911 18.62 60.5686 19.091 60.5686 19.6246V27H57.6119ZM68.9506 31.7045C68.5477 31.7045 68.1747 31.6719 67.8317 31.6065C67.4941 31.5466 67.2246 31.4759 67.0231 31.3942L67.7092 29.0909C68.1393 29.2161 68.5232 29.276 68.8608 29.2706C69.1984 29.2652 69.4951 29.159 69.7511 28.9521C70.0124 28.7506 70.233 28.413 70.4126 27.9393L70.6658 27.2614L66.1165 14.4545H69.2528L72.1442 23.929H72.2749L75.1744 14.4545H78.3189L73.2958 28.5192C73.0617 29.1835 72.7513 29.7525 72.3647 30.2262C71.9781 30.7054 71.5044 31.0702 70.9435 31.3207C70.3881 31.5766 69.7238 31.7045 68.9506 31.7045ZM80.3649 31.7045V14.4545H83.2725V16.5291H83.4441C83.5965 16.2242 83.8116 15.9002 84.0893 15.5572C84.367 15.2087 84.7427 14.9119 85.2164 14.6669C85.6902 14.4164 86.2946 14.2912 87.0297 14.2912C87.9989 14.2912 88.8728 14.5389 89.6515 15.0344C90.4355 15.5245 91.0563 16.2514 91.5137 17.2152C91.9765 18.1735 92.2079 19.3497 92.2079 20.7436C92.2079 22.1212 91.9819 23.2919 91.53 24.2557C91.0781 25.2195 90.4628 25.9545 89.6841 26.4609C88.9055 26.9673 88.0234 27.2205 87.0378 27.2205C86.3191 27.2205 85.7228 27.1007 85.2491 26.8612C84.7754 26.6216 84.3942 26.333 84.1056 25.9954C83.8225 25.6523 83.602 25.3284 83.4441 25.0234H83.3216V31.7045H80.3649ZM83.2644 20.7273C83.2644 21.5386 83.3787 22.2492 83.6074 22.859C83.8416 23.4689 84.1764 23.9453 84.612 24.2884C85.0531 24.6259 85.5867 24.7947 86.2129 24.7947C86.8663 24.7947 87.4135 24.6205 87.8546 24.272C88.2956 23.9181 88.6278 23.4362 88.851 22.8263C89.0797 22.2111 89.1941 21.5114 89.1941 20.7273C89.1941 19.9486 89.0824 19.2571 88.8592 18.6527C88.6359 18.0483 88.3038 17.5746 87.8627 17.2315C87.4217 16.8885 86.8717 16.717 86.2129 16.717C85.5813 16.717 85.0449 16.883 84.6039 17.2152C84.1628 17.5473 83.8279 18.0129 83.5993 18.6119C83.376 19.2108 83.2644 19.916 83.2644 20.7273ZM101.004 14.4545V16.7415H93.7924V14.4545H101.004ZM95.573 11.4489H98.5297V23.2266C98.5297 23.6241 98.5895 23.929 98.7093 24.1413C98.8346 24.3482 98.9979 24.4898 99.1994 24.5661C99.4009 24.6423 99.6241 24.6804 99.8691 24.6804C100.054 24.6804 100.223 24.6668 100.376 24.6396C100.533 24.6123 100.653 24.5878 100.735 24.5661L101.233 26.8775C101.075 26.9319 100.849 26.9918 100.555 27.0572C100.267 27.1225 99.9127 27.1606 99.4934 27.1715C98.7529 27.1933 98.0859 27.0817 97.4924 26.8366C96.8989 26.5862 96.4279 26.1996 96.0794 25.6768C95.7363 25.1541 95.5675 24.5007 95.573 23.7166V11.4489ZM108.815 27.245C107.59 27.245 106.528 26.9755 105.629 26.4364C104.731 25.8974 104.034 25.1432 103.538 24.174C103.048 23.2048 102.803 22.0722 102.803 20.7763C102.803 19.4804 103.048 18.3451 103.538 17.3704C104.034 16.3957 104.731 15.6388 105.629 15.0998C106.528 14.5607 107.59 14.2912 108.815 14.2912C110.04 14.2912 111.102 14.5607 112 15.0998C112.899 15.6388 113.593 16.3957 114.083 17.3704C114.578 18.3451 114.826 19.4804 114.826 20.7763C114.826 22.0722 114.578 23.2048 114.083 24.174C113.593 25.1432 112.899 25.8974 112 26.4364C111.102 26.9755 110.04 27.245 108.815 27.245ZM108.831 24.8764C109.495 24.8764 110.051 24.694 110.497 24.3292C110.944 23.9589 111.276 23.4634 111.494 22.8427C111.717 22.2219 111.829 21.5304 111.829 20.7681C111.829 20.0004 111.717 19.3061 111.494 18.6854C111.276 18.0592 110.944 17.561 110.497 17.1907C110.051 16.8204 109.495 16.6353 108.831 16.6353C108.15 16.6353 107.584 16.8204 107.132 17.1907C106.686 17.561 106.351 18.0592 106.128 18.6854C105.91 19.3061 105.801 20.0004 105.801 20.7681C105.801 21.5304 105.91 22.2219 106.128 22.8427C106.351 23.4634 106.686 23.9589 107.132 24.3292C107.584 24.694 108.15 24.8764 108.831 24.8764ZM120.292 19.6491V27H117.336V14.4545H120.162V16.5863H120.309C120.597 15.8839 121.057 15.3258 121.689 14.9119C122.326 14.4981 123.113 14.2912 124.049 14.2912C124.915 14.2912 125.669 14.4763 126.312 14.8466C126.96 15.2169 127.461 15.7532 127.815 16.4556C128.174 17.158 128.351 18.0102 128.346 19.0121V27H125.389V19.4695C125.389 18.6309 125.171 17.9748 124.735 17.5011C124.305 17.0273 123.709 16.7905 122.947 16.7905C122.429 16.7905 121.969 16.9048 121.566 17.1335C121.169 17.3568 120.856 17.6808 120.627 18.1055C120.404 18.5302 120.292 19.0447 120.292 19.6491Z" fill="white"/>
<path d="M16.5 0C14.3332 0 12.1876 0.426247 10.1857 1.25426C8.18381 2.08237 6.36495 3.29605 4.83271 4.82609C3.30057 6.35623 2.08522 8.1726 1.25598 10.1717C0.426831 12.1709 0 14.3136 0 16.4774C0 18.6412 0.426831 20.7839 1.25598 22.7831C2.08522 24.7822 3.30057 26.5986 4.83271 28.1287C6.36495 29.6588 8.18381 30.8724 10.1857 31.7005C12.1876 32.5286 14.3332 32.9548 16.5 32.9548V24.7161C15.4166 24.7161 14.3438 24.503 13.3428 24.0889C12.3419 23.6749 11.4324 23.0681 10.6664 22.3031C9.90028 21.538 9.29261 20.6298 8.87804 19.6302C8.46337 18.6307 8.25 17.5594 8.25 16.4774C8.25 15.3955 8.46337 14.3241 8.87804 13.3246C9.29261 12.325 9.90028 11.4168 10.6664 10.6517C11.4324 9.88673 12.3419 9.27989 13.3428 8.86588C14.3438 8.45178 15.4166 8.2387 16.5 8.2387V0Z" fill="url(#paint0_linear_123_24)"/>
<path d="M16.5 21.9702C19.5376 21.9702 22 19.5112 22 16.4778C22 13.4443 19.5376 10.9854 16.5 10.9854C13.4624 10.9854 11.0001 13.4443 11.0001 16.4778C11.0001 19.5112 13.4624 21.9702 16.5 21.9702Z" fill="url(#paint1_linear_123_24)"/>
<path d="M0 16.4778C0 18.6416 0.426831 20.7843 1.25598 22.7835C2.08522 24.7826 3.30057 26.599 4.83271 28.1291C6.36495 29.6591 8.18381 30.8728 10.1857 31.7009C12.1876 32.5289 14.3332 32.9552 16.5 32.9552C18.6668 32.9552 20.8124 32.5289 22.8143 31.7009C24.8162 30.8728 26.6351 29.6591 28.1673 28.1291C29.6994 26.599 30.9148 24.7826 31.744 22.7835C32.5732 20.7843 33 18.6416 33 16.4778H24.75C24.75 17.5597 24.5366 18.631 24.122 19.6306C23.7074 20.6302 23.0997 21.5384 22.3336 22.3034C21.5676 23.0685 20.6581 23.6753 19.6572 24.0893C18.6562 24.5034 17.5834 24.7165 16.5 24.7165C15.4166 24.7165 14.3438 24.5034 13.3428 24.0893C12.3419 23.6753 11.4324 23.0685 10.6664 22.3034C9.90028 21.5384 9.29261 20.6302 8.87804 19.6306C8.46337 18.631 8.25 17.5597 8.25 16.4778H0Z" fill="url(#paint2_linear_123_24)"/>
<path d="M22.0001 16.4779C22.0001 15.0212 21.4206 13.6242 20.3892 12.5941C19.3577 11.564 17.9588 10.9854 16.5001 10.9854C15.0414 10.9854 13.6425 11.564 12.611 12.5941C11.5795 13.6242 11.0001 15.0212 11.0001 16.4779H16.5001H22.0001Z" fill="url(#paint3_linear_123_24)"/>
<defs>
<linearGradient id="paint0_linear_123_24" x1="8.25" y1="0" x2="8.25" y2="32.9548" gradientUnits="userSpaceOnUse">
<stop stop-color="#C73293"/>
<stop offset="1" stop-color="#F17EC9" stop-opacity="0"/>
</linearGradient>
<linearGradient id="paint1_linear_123_24" x1="16.5" y1="10.9854" x2="16.5" y2="21.9702" gradientUnits="userSpaceOnUse">
<stop stop-color="#C73293"/>
<stop offset="1" stop-color="#F17EC9" stop-opacity="0"/>
</linearGradient>
<linearGradient id="paint2_linear_123_24" x1="16.5" y1="16.4778" x2="16.5" y2="32.9552" gradientUnits="userSpaceOnUse">
<stop stop-color="#C73293"/>
<stop offset="1" stop-color="#F17EC9" stop-opacity="0"/>
</linearGradient>
<linearGradient id="paint3_linear_123_24" x1="16.5001" y1="10.9854" x2="16.5001" y2="16.4779" gradientUnits="userSpaceOnUse">
<stop stop-color="#C73293"/>
<stop offset="1" stop-color="#F17EC9" stop-opacity="0"/>
</linearGradient>
</defs>
</svg>
